<mxfile host="app.diagrams.net" modified="2023-10-20T05:36:42.344Z" agent="Mozilla/5.0 (Windows NT 10.0; Win64; x64) AppleWebKit/537.36 (KHTML, like Gecko) Chrome/116.0.0.0 Safari/537.36" etag="U2Azed6a81CdOYEsC-e7" version="22.0.5" type="device">
  <diagram name="第 1 页" id="8nIlGHCvZ5qO9jsQUCls">
    <mxGraphModel dx="234" dy="356" grid="1" gridSize="10" guides="1" tooltips="1" connect="1" arrows="1" fold="1" page="1" pageScale="1" pageWidth="827" pageHeight="1169" math="0" shadow="0">
      <root>
        <mxCell id="0" />
        <mxCell id="1" parent="0" />
        <UserObject label="員工(&lt;u&gt;編號&lt;/u&gt;)" placeholders="1" name="Variable" id="-BT8fkkwhMTNgvmd7bZY-14">
          <mxCell style="text;html=1;strokeColor=none;fillColor=none;align=left;verticalAlign=middle;whiteSpace=wrap;overflow=hidden;" vertex="1" parent="1">
            <mxGeometry x="240" y="400" width="80" height="20" as="geometry" />
          </mxCell>
        </UserObject>
        <UserObject label="產品(&lt;u&gt;品號&lt;/u&gt;)" placeholders="1" name="Variable" id="-BT8fkkwhMTNgvmd7bZY-15">
          <mxCell style="text;html=1;strokeColor=none;fillColor=none;align=left;verticalAlign=middle;whiteSpace=wrap;overflow=hidden;" vertex="1" parent="1">
            <mxGeometry x="240" y="440" width="80" height="20" as="geometry" />
          </mxCell>
        </UserObject>
        <UserObject label="銷售(&lt;u&gt;編號&lt;/u&gt;, &lt;u&gt;品號&lt;/u&gt;)" placeholders="1" name="Variable" id="-BT8fkkwhMTNgvmd7bZY-16">
          <mxCell style="text;html=1;strokeColor=none;fillColor=none;align=left;verticalAlign=middle;whiteSpace=wrap;overflow=hidden;" vertex="1" parent="1">
            <mxGeometry x="240" y="480" width="100" height="20" as="geometry" />
          </mxCell>
        </UserObject>
      </root>
    </mxGraphModel>
  </diagram>
</mxfile>
